<svg width="161" height="161" viewBox="0 0 161 161" fill="none" xmlns="http://www.w3.org/2000/svg">
<mask id="mask0_13_7" style="mask-type:alpha" maskUnits="userSpaceOnUse" x="0" y="0" width="161" height="161">
<path d="M161 80.5C161 124.959 124.959 161 80.5 161C36.0411 161 0 124.959 0 80.5C0 36.0411 36.0411 0 80.5 0C124.959 0 161 36.0411 161 80.5Z" fill="#D9D9D9"/>
</mask>
<g mask="url(#mask0_13_7)">
<path d="M25.1562 178.106C25.1562 178.106 25.1562 144.9 25.1562 135.76C25.1562 126.62 34.2964 99.1995 79.9969 99.1995C125.697 99.1995 134.838 126.62 134.838 135.76C134.838 144.9 134.838 178.106 134.838 178.106H25.1562ZM79.9969 90.0594C87.2692 90.0594 94.2437 87.1704 99.386 82.0281C104.528 76.8858 107.417 69.9114 107.417 62.6391C107.417 55.3667 104.528 48.3923 99.386 43.25C94.2437 38.1077 87.2692 35.2188 79.9969 35.2188C72.7246 35.2188 65.7501 38.1077 60.6078 43.25C55.4655 48.3923 52.5766 55.3667 52.5766 62.6391C52.5766 69.9114 55.4655 76.8858 60.6078 82.0281C65.7501 87.1704 72.7246 90.0594 79.9969 90.0594Z" fill="#BFC1C1"/>
</g>
</svg>
