<svg width="32" height="26" viewBox="0 0 32 26" fill="none" xmlns="http://www.w3.org/2000/svg">
<path fill-rule="evenodd" clip-rule="evenodd" d="M0 24.5556C0 24.1725 0.153247 23.8051 0.426027 23.5342C0.698807 23.2633 1.06878 23.1111 1.45455 23.1111H30.5455C30.9312 23.1111 31.3012 23.2633 31.574 23.5342C31.8468 23.8051 32 24.1725 32 24.5556C32 24.9386 31.8468 25.306 31.574 25.5769C31.3012 25.8478 30.9312 26 30.5455 26H1.45455C1.06878 26 0.698807 25.8478 0.426027 25.5769C0.153247 25.306 0 24.9386 0 24.5556ZM0 13C0 12.6169 0.153247 12.2495 0.426027 11.9786C0.698807 11.7077 1.06878 11.5556 1.45455 11.5556H30.5455C30.9312 11.5556 31.3012 11.7077 31.574 11.9786C31.8468 12.2495 32 12.6169 32 13C32 13.3831 31.8468 13.7505 31.574 14.0214C31.3012 14.2923 30.9312 14.4444 30.5455 14.4444H1.45455C1.06878 14.4444 0.698807 14.2923 0.426027 14.0214C0.153247 13.7505 0 13.3831 0 13ZM0 1.44444C0 1.06135 0.153247 0.693954 0.426027 0.423068C0.698807 0.152182 1.06878 0 1.45455 0H30.5455C30.9312 0 31.3012 0.152182 31.574 0.423068C31.8468 0.693954 32 1.06135 32 1.44444C32 1.82753 31.8468 2.19493 31.574 2.46582C31.3012 2.73671 30.9312 2.88889 30.5455 2.88889H1.45455C1.06878 2.88889 0.698807 2.73671 0.426027 2.46582C0.153247 2.19493 0 1.82753 0 1.44444Z" fill="#A1A1A1"/>
</svg>
