<svg width="54" height="50" viewBox="0 0 54 50" fill="none" xmlns="http://www.w3.org/2000/svg">
<path d="M42.0931 49.4997C41.7247 49.5011 41.3653 49.3863 41.066 49.1716L26.9993 38.9735L12.9326 49.1716C12.6321 49.3895 12.27 49.5063 11.8988 49.505C11.5275 49.5036 11.1663 49.3842 10.8674 49.1641C10.5684 48.9439 10.3473 48.6344 10.2358 48.2803C10.1244 47.9261 10.1284 47.5457 10.2474 47.1941L15.7337 30.9442L1.51493 21.1935C1.20694 20.9825 0.974494 20.6786 0.851542 20.3261C0.72859 19.9736 0.721582 19.591 0.831541 19.2343C0.9415 18.8775 1.16266 18.5653 1.46272 18.3431C1.76277 18.121 2.12599 18.0007 2.49931 17.9997H20.0409L25.3346 1.70831C25.4487 1.35658 25.6712 1.05002 25.9702 0.83259C26.2693 0.615162 26.6296 0.498047 26.9993 0.498047C27.3691 0.498047 27.7293 0.615162 28.0284 0.83259C28.3274 1.05002 28.55 1.35658 28.664 1.70831L33.9578 18.0052H51.4993C51.8731 18.005 52.2371 18.1245 52.5381 18.3462C52.839 18.5679 53.0611 18.8801 53.1717 19.2371C53.2824 19.5941 53.2758 19.9772 53.153 20.3302C53.0302 20.6833 52.7975 20.9877 52.4892 21.1989L38.2649 30.9442L43.7479 47.1897C43.8367 47.4527 43.8617 47.7331 43.8208 48.0077C43.7799 48.2823 43.6742 48.5432 43.5126 48.7688C43.3509 48.9945 43.1378 49.1785 42.891 49.3056C42.6442 49.4327 42.3707 49.4992 42.0931 49.4997Z" fill="#FFCB02"/>
</svg>
